<?xml version="1.0" encoding="UTF-8" standalone="no"?> <!-- Created with Vectornator for iOS (http://vectornator.io/) --><!DOCTYPE svg PUBLIC "-//W3C//DTD SVG 1.1//EN" "http://www.w3.org/Graphics/SVG/1.1/DTD/svg11.dtd">
<svg height="100%" style="fill-rule:nonzero;clip-rule:evenodd;stroke-linecap:round;stroke-linejoin:round;" xmlns:xlink="http://www.w3.org/1999/xlink" xmlns="http://www.w3.org/2000/svg" xml:space="preserve" width="100%" xmlns:vectornator="http://vectornator.io" version="1.1" viewBox="0 0 414.967 167.253">
<metadata>
<vectornator:setting key="DimensionsVisible" value="1"/>
<vectornator:setting key="PencilOnly" value="0"/>
<vectornator:setting key="SnapToPoints" value="0"/>
<vectornator:setting key="OutlineMode" value="0"/>
<vectornator:setting key="CMYKEnabledKey" value="0"/>
<vectornator:setting key="GuidesVisible" value="1"/>
<vectornator:setting key="SnapToEdges" value="0"/>
<vectornator:setting key="RulersVisible" value="1"/>
<vectornator:setting key="DisplayWhiteBackground" value="0"/>
<vectornator:setting key="doHistoryDisabled" value="0"/>
<vectornator:setting key="TimeLapseWatermarkDisabled" value="0"/>
<vectornator:setting key="SnapToGuides" value="1"/>
<vectornator:setting key="DynamicGuides" value="0"/>
<vectornator:setting key="IsolateActiveLayer" value="0"/>
<vectornator:setting key="Units" value="Pixels"/>
<vectornator:setting key="SnapToGrid" value="0"/>
</metadata>
<defs/>
<g id="Layer 1" vectornator:layerName="Layer 1">
<path d="M312+4.3125C304.034+4.32731+296.156+8.67178+290.094+13.5938C288.417+14.9552+286.784+16.4174+285.25+17.9375C281.147+22.0027+277.556+26.5384+274.406+31.375C271.15+36.3751+268.378+41.8542+266.125+47.5312C258.278+46.3574+250.45+44.9276+242.75+43.125C236.795+41.7308+230.889+40.1533+225.094+38.1875C221.781+37.0638+218.443+35.8503+215.406+34.0938C213.014+32.7137+209.943+33.5456+208.562+35.9375C207.182+38.3294+208.014+41.37+210.406+42.75C214.461+45.0845+218.908+46.7092+223.344+48.1562C228.981+49.9954+234.697+51.5237+240.469+52.875C247.881+54.6103+255.418+56.037+262.969+57.2188C259.869+69.1192+259.466+81.6153+263.469+93.3438C269.061+109.729+282.213+121.09+297.688+128.031C316.088+136.285+337.101+138.842+357.094+139.344C363.535+139.505+370+139.406+376.438+139.156C384.775+138.833+393.073+138.192+401.375+137.375C404.123+137.105+406.145+134.654+405.875+131.906C405.605+129.158+403.154+127.167+400.406+127.438C392.301+128.235+384.171+128.872+376.031+129.188C361.239+129.761+346.344+129.403+331.688+127.188C321.45+125.64+311.252+123.155+301.781+118.906C288.169+112.8+276.544+102.855+272.312+88.125C269.546+78.494+270.226+68.2737+272.938+58.5625C279.314+59.3184+285.696+59.9107+292.094+60.1562C302.314+60.5485+313.121+60.3738+323.031+57.5938C329.725+55.7161+336.684+52.2277+339.719+45.5938C343.968+36.3053+338.538+25.948+333.125+18.4375C332.174+17.1184+331.179+15.8266+330.156+14.5625C327.267+10.9905+324.255+7.69352+319.938+5.875C317.333+4.77827+314.655+4.30756+312+4.3125ZM312.406+14.3125C313.802+14.3592+315.165+14.6581+316.469+15.2812C318.639+16.319+320.117+18.1202+321.625+19.9375C322.792+21.3446+323.931+22.7981+325+24.2812C325.741+25.3089+326.454+26.3626+327.125+27.4375C330.048+32.1229+333.837+39.4258+328.688+43.9688C327.553+44.97+326.214+45.7484+324.844+46.375C322.99+47.2223+321.008+47.8268+319.031+48.3125C316.064+49.0416+313.039+49.4825+310+49.7812C300.777+50.6882+291.497+50.2895+282.281+49.5312C280.296+49.368+278.327+48.9954+276.344+48.7812C278.175+44.5843+280.363+40.5572+282.781+36.8438C285.373+32.8639+288.303+29.1157+291.625+25.7188C293.128+24.1813+294.705+22.6999+296.375+21.3438C297.678+20.2854+299.052+19.308+300.469+18.4062C303.816+16.2758+308.218+14.1723+312.406+14.3125Z" opacity="1" fill="#133489"/>
<path d="M382.438+109.688C381.175+109.899+379.989+110.594+379.188+111.719C377.585+113.967+378.126+117.085+380.375+118.688C382.981+120.545+385.597+122.383+388.219+124.219C390.765+126.001+393.313+127.767+395.781+129.656C396.544+130.24+397.327+130.847+398.031+131.5C398.075+131.541+398.114+131.584+398.156+131.625C397.426+132.568+396.631+133.486+395.812+134.344C394.433+135.789+393.06+137.237+391.719+138.719C390.303+140.284+388.922+141.86+387.594+143.5C385.512+146.072+383.557+148.74+381.688+151.469C380.127+153.747+380.722+156.877+383+158.438C385.278+159.998+388.377+159.403+389.938+157.125C393.433+152.022+397.332+147.265+401.594+142.781C404.366+139.864+408.229+136.657+408.656+132.375C409.006+128.876+406.942+126.061+404.469+123.844C402.079+121.701+399.401+119.876+396.781+118.031C393.247+115.542+389.676+113.072+386.156+110.562C385.032+109.761+383.7+109.476+382.438+109.688Z" opacity="1" fill="#133489"/>
</g>
<g id="Layer 2" vectornator:layerName="Layer 2">
<g opacity="1">
<path d="M30.1888+13.2403L30.1888+31.9903C30.1888+33.6179+30.1196+35.0014+29.9813+36.1407C29.8429+37.28+29.5296+38.4356+29.0413+39.6075C28.2275+41.5769+26.8848+43.1109+25.013+44.2096C23.1413+45.3082+20.8626+45.8575+18.1771+45.8575C15.7519+45.8575+13.7296+45.475+12.1102+44.7101C10.4907+43.9451+9.18457+42.7081+8.19173+40.9991C7.67089+40.0877+7.24772+39.0379+6.9222+37.8497C6.59667+36.6616+6.43391+35.5304+6.43391+34.4562C6.43391+33.3168+6.7513+32.4461+7.38606+31.8438C8.02083+31.2416+8.83463+30.9405+9.82747+30.9405C10.7878+30.9405+11.512+31.2172+12.0003+31.7706C12.4886+32.324+12.863+33.1866+13.1234+34.3585C13.4001+35.6118+13.6768+36.6127+13.9534+37.3614C14.2301+38.1101+14.694+38.753+15.345+39.2901C15.9961+39.8272+16.9238+40.0958+18.1283+40.0958C21.3346+40.0958+22.9378+37.7439+22.9378+33.0401L22.9378+13.2403C22.9378+11.7755+23.2593+10.6769+23.9022+9.94443C24.5451+9.21201+25.4199+8.8458+26.5267+8.8458C27.6497+8.8458+28.5408+9.21201+29.2+9.94443C29.8592+10.6769+30.1888+11.7755+30.1888+13.2403Z" opacity="1" fill="#133489"/>
<path d="M58.9702+32.3077C58.9702+34.2934+58.6609+36.1244+58.0425+37.8009C57.424+39.4773+56.5288+40.9177+55.3569+42.1222C54.185+43.3266+52.7853+44.2503+51.1577+44.8932C49.5301+45.5361+47.699+45.8575+45.6645+45.8575C43.6463+45.8575+41.8315+45.532+40.2202+44.881C38.6089+44.2299+37.2132+43.2981+36.0332+42.0855C34.8532+40.873+33.958+39.4407+33.3476+37.7887C32.7373+36.1367+32.4321+34.3097+32.4321+32.3077C32.4321+30.2895+32.7413+28.4422+33.3598+26.7657C33.9783+25.0893+34.8654+23.657+36.021+22.4688C37.1766+21.2807+38.5763+20.3652+40.2202+19.7223C41.8641+19.0794+43.6788+18.7579+45.6645+18.7579C47.6828+18.7579+49.5138+19.0834+51.1577+19.7345C52.8016+20.3855+54.2094+21.3132+55.3813+22.5177C56.5532+23.7221+57.4443+25.1544+58.0547+26.8146C58.665+28.4747+58.9702+30.3058+58.9702+32.3077ZM52.2807+32.3077C52.2807+29.5896+51.6826+27.4737+50.4863+25.9601C49.29+24.4464+47.6828+23.6896+45.6645+23.6896C44.3624+23.6896+43.215+24.0273+42.2221+24.7027C41.2293+25.3782+40.4643+26.3751+39.9272+27.6935C39.3901+29.0118+39.1216+30.5499+39.1216+32.3077C39.1216+34.0493+39.386+35.5711+39.915+36.8731C40.444+38.1752+41.2008+39.1721+42.1855+39.8639C43.1702+40.5556+44.3299+40.9015+45.6645+40.9015C47.6828+40.9015+49.29+40.1406+50.4863+38.6187C51.6826+37.0969+52.2807+34.9933+52.2807+32.3077Z" opacity="1" fill="#133489"/>
<path d="M67.317+22.5421L67.317+41.8048C67.317+43.1394+66.9996+44.1485+66.3649+44.8321C65.7301+45.5157+64.9244+45.8575+63.9479+45.8575C62.9713+45.8575+62.1778+45.5076+61.5675+44.8077C60.9571+44.1078+60.652+43.1069+60.652+41.8048L60.652+22.7374C60.652+21.419+60.9571+20.4262+61.5675+19.7589C62.1778+19.0916+62.9713+18.7579+63.9479+18.7579C64.9244+18.7579+65.7301+19.0916+66.3649+19.7589C66.9996+20.4262+67.317+21.3539+67.317+22.5421ZM64.0211+15.6573C63.0934+15.6573+62.2999+15.3725+61.6407+14.8028C60.9816+14.2332+60.652+13.4275+60.652+12.3858C60.652+11.4418+60.9897+10.6646+61.6652+10.0543C62.3406+9.44394+63.1259+9.13877+64.0211+9.13877C64.8837+9.13877+65.6487+9.41546+66.316+9.96885C66.9833+10.5222+67.317+11.3279+67.317+12.3858C67.317+13.4112+66.9915+14.2128+66.3404+14.7906C65.6894+15.3684+64.9163+15.6573+64.0211+15.6573Z" opacity="1" fill="#133489"/>
<path d="M76.6892+22.4444L76.6892+23.2501C77.8611+21.7039+79.1428+20.5686+80.5344+19.8443C81.926+19.1201+83.5252+18.7579+85.3318+18.7579C87.0896+18.7579+88.6602+19.1404+90.0437+19.9054C91.4272+20.6703+92.4607+21.7527+93.1443+23.1524C93.5837+23.9662+93.8686+24.8451+93.9988+25.7892C94.129+26.7332+94.1941+27.9376+94.1941+29.4024L94.1941+41.8048C94.1941+43.1394+93.8889+44.1485+93.2786+44.8321C92.6682+45.5157+91.8748+45.8575+90.8982+45.8575C89.9054+45.8575+89.0997+45.5076+88.4812+44.8077C87.8627+44.1078+87.5535+43.1069+87.5535+41.8048L87.5535+30.6964C87.5535+28.4991+87.2483+26.8186+86.6379+25.6549C86.0276+24.4911+84.811+23.9093+82.988+23.9093C81.7999+23.9093+80.7175+24.2633+79.741+24.9713C78.7644+25.6793+78.0483+26.6518+77.5925+27.8888C77.267+28.8816+77.1043+30.7371+77.1043+33.4552L77.1043+41.8048C77.1043+43.1557+76.7909+44.1689+76.1643+44.8443C75.5377+45.5198+74.728+45.8575+73.7351+45.8575C72.7748+45.8575+71.9854+45.5076+71.3669+44.8077C70.7485+44.1078+70.4392+43.1069+70.4392+41.8048L70.4392+22.5421C70.4392+21.2726+70.7159+20.3245+71.2693+19.6979C71.8227+19.0712+72.5795+18.7579+73.5398+18.7579C74.1257+18.7579+74.6547+18.8963+75.1267+19.1729C75.5987+19.4496+75.9771+19.8647+76.262+20.4181C76.5468+20.9715+76.6892+21.6469+76.6892+22.4444Z" opacity="1" fill="#133489"/>
<path d="M112.255+22.4444L112.255+23.2501C113.427+21.7039+114.709+20.5686+116.1+19.8443C117.492+19.1201+119.091+18.7579+120.898+18.7579C122.655+18.7579+124.226+19.1404+125.609+19.9054C126.993+20.6703+128.026+21.7527+128.71+23.1524C129.149+23.9662+129.434+24.8451+129.564+25.7892C129.695+26.7332+129.76+27.9376+129.76+29.4024L129.76+41.8048C129.76+43.1394+129.455+44.1485+128.844+44.8321C128.234+45.5157+127.44+45.8575+126.464+45.8575C125.471+45.8575+124.665+45.5076+124.047+44.8077C123.428+44.1078+123.119+43.1069+123.119+41.8048L123.119+30.6964C123.119+28.4991+122.814+26.8186+122.204+25.6549C121.593+24.4911+120.377+23.9093+118.554+23.9093C117.366+23.9093+116.283+24.2633+115.307+24.9713C114.33+25.6793+113.614+26.6518+113.158+27.8888C112.833+28.8816+112.67+30.7371+112.67+33.4552L112.67+41.8048C112.67+43.1557+112.357+44.1689+111.73+44.8443C111.103+45.5198+110.294+45.8575+109.301+45.8575C108.341+45.8575+107.551+45.5076+106.933+44.8077C106.314+44.1078+106.005+43.1069+106.005+41.8048L106.005+22.5421C106.005+21.2726+106.282+20.3245+106.835+19.6979C107.388+19.0712+108.145+18.7579+109.106+18.7579C109.691+18.7579+110.22+18.8963+110.692+19.1729C111.164+19.4496+111.543+19.8647+111.828+20.4181C112.113+20.9715+112.255+21.6469+112.255+22.4444Z" opacity="1" fill="#133489"/>
<path d="M157.784+32.3077C157.784+34.2934+157.475+36.1244+156.857+37.8009C156.238+39.4773+155.343+40.9177+154.171+42.1222C152.999+43.3266+151.599+44.2503+149.972+44.8932C148.344+45.5361+146.513+45.8575+144.479+45.8575C142.46+45.8575+140.646+45.532+139.034+44.881C137.423+44.2299+136.027+43.2981+134.847+42.0855C133.667+40.873+132.772+39.4407+132.162+37.7887C131.551+36.1367+131.246+34.3097+131.246+32.3077C131.246+30.2895+131.556+28.4422+132.174+26.7657C132.792+25.0893+133.68+23.657+134.835+22.4688C135.991+21.2807+137.39+20.3652+139.034+19.7223C140.678+19.0794+142.493+18.7579+144.479+18.7579C146.497+18.7579+148.328+19.0834+149.972+19.7345C151.616+20.3855+153.024+21.3132+154.195+22.5177C155.367+23.7221+156.258+25.1544+156.869+26.8146C157.479+28.4747+157.784+30.3058+157.784+32.3077ZM151.095+32.3077C151.095+29.5896+150.497+27.4737+149.3+25.9601C148.104+24.4464+146.497+23.6896+144.479+23.6896C143.177+23.6896+142.029+24.0273+141.036+24.7027C140.043+25.3782+139.279+26.3751+138.741+27.6935C138.204+29.0118+137.936+30.5499+137.936+32.3077C137.936+34.0493+138.2+35.5711+138.729+36.8731C139.258+38.1752+140.015+39.1721+141+39.8639C141.984+40.5556+143.144+40.9015+144.479+40.9015C146.497+40.9015+148.104+40.1406+149.3+38.6187C150.497+37.0969+151.095+34.9933+151.095+32.3077Z" opacity="1" fill="#133489"/>
<path d="M163.617+22.9083L167.962+37.8009L171.917+23.9581C172.34+22.5095+172.654+21.5208+172.857+20.9918C173.061+20.4628+173.443+19.9583+174.005+19.4781C174.566+18.998+175.335+18.7579+176.312+18.7579C177.305+18.7579+178.082+18.998+178.643+19.4781C179.205+19.9583+179.6+20.4791+179.827+21.0406C180.055+21.6021+180.373+22.5746+180.78+23.9581L184.735+37.8009L189.129+22.9083C189.422+21.8341+189.658+21.0569+189.837+20.5768C190.016+20.0966+190.317+19.6734+190.741+19.3072C191.164+18.941+191.774+18.7579+192.572+18.7579C193.369+18.7579+194.061+19.0346+194.647+19.588C195.233+20.1414+195.526+20.7924+195.526+21.5411C195.526+22.2247+195.273+23.2582+194.769+24.6417L189.325+40.6085C188.853+41.9594+188.486+42.936+188.226+43.5382C187.965+44.1404+187.555+44.6775+186.993+45.1495C186.431+45.6215+185.662+45.8575+184.686+45.8575C183.677+45.8575+182.883+45.6052+182.305+45.1007C181.728+44.5961+181.3+43.9776+181.024+43.2452C180.747+42.5128+180.446+41.5606+180.12+40.3888L176.312+27.4005L172.625+40.3888C172.137+42.1954+171.608+43.5585+171.038+44.4781C170.469+45.3977+169.468+45.8575+168.035+45.8575C167.303+45.8575+166.68+45.7151+166.168+45.4303C165.655+45.1454+165.228+44.7385+164.886+44.2096C164.544+43.6806+164.243+43.054+163.983+42.3297C163.722+41.6054+163.519+41.0317+163.372+40.6085L157.977+24.6417C157.44+23.1443+157.171+22.1108+157.171+21.5411C157.171+20.825+157.456+20.1821+158.026+19.6124C158.595+19.0427+159.295+18.7579+160.125+18.7579C161.232+18.7579+161.981+19.0712+162.371+19.6979C162.762+20.3245+163.177+21.3946+163.617+22.9083Z" opacity="1" fill="#133489"/>
</g>
</g>
</svg>
